<svg width="512" height="512" viewBox="0 0 512 512" fill="none" xmlns="http://www.w3.org/2000/svg">
  <rect width="512" height="512" rx="100" fill="#D8DDE9"/>
  <g transform="translate(66, 28) scale(3.8)">
    <ellipse cx="50" cy="42" rx="34" ry="36" fill="#2C1810"/>
    <path d="M74 45 Q88 55 85 80 Q82 95 75 100 Q80 80 76 65 Q74 55 74 45Z" fill="#2C1810"/>
    <path d="M26 45 Q12 58 15 82 Q18 96 24 100 Q20 80 24 65 Q26 55 26 45Z" fill="#2C1810"/>
    <ellipse cx="50" cy="50" rx="28" ry="30" fill="#FDDBB4"/>
    <ellipse cx="50" cy="18" rx="16" ry="10" fill="#2C1810"/>
    <path d="M32 40 Q39 36 44 39" stroke="#2C1810" stroke-width="3" stroke-linecap="round" fill="none"/>
    <path d="M56 39 Q61 36 68 40" stroke="#2C1810" stroke-width="3" stroke-linecap="round" fill="none"/>
    <ellipse cx="38" cy="47" rx="5" ry="5.5" fill="white"/>
    <ellipse cx="62" cy="47" rx="5" ry="5.5" fill="white"/>
    <ellipse cx="38.5" cy="47.5" rx="3.5" ry="4" fill="#3D2314"/>
    <ellipse cx="62.5" cy="47.5" rx="3.5" ry="4" fill="#3D2314"/>
    <circle cx="40" cy="46" r="1.2" fill="white"/>
    <circle cx="64" cy="46" r="1.2" fill="white"/>
    <path d="M38 63 Q50 72 62 63" stroke="#C68642" stroke-width="2.5" stroke-linecap="round" fill="none"/>
    <ellipse cx="30" cy="60" rx="7" ry="4" fill="#FFB3A7" opacity="0.5"/>
    <ellipse cx="70" cy="60" rx="7" ry="4" fill="#FFB3A7" opacity="0.5"/>
    <circle cx="21" cy="55" r="5.5" fill="#F7D070" stroke="#E8B800" stroke-width="1.2"/>
    <text x="21" y="58.5" text-anchor="middle" font-size="6" font-weight="bold" fill="#B8860B">$</text>
    <circle cx="79" cy="55" r="5.5" fill="#F7D070" stroke="#E8B800" stroke-width="1.2"/>
    <text x="79" y="58.5" text-anchor="middle" font-size="6" font-weight="bold" fill="#B8860B">$</text>
    <path d="M22 92 Q20 112 22 118 L78 118 Q80 112 78 92 Q70 82 50 82 Q30 82 22 92Z" fill="#6366F1"/>
    <ellipse cx="16" cy="104" rx="7" ry="5" fill="#FDDBB4"/>
    <ellipse cx="84" cy="104" rx="7" ry="5" fill="#FDDBB4"/>
  </g>
</svg>
